<?xml version="1.0" standalone="no"?><!DOCTYPE svg PUBLIC "-//W3C//DTD SVG 1.1//EN" "http://www.w3.org/Graphics/SVG/1.1/DTD/svg11.dtd"><svg t="1689726394265" class="icon" viewBox="0 0 1024 1024" version="1.1" xmlns="http://www.w3.org/2000/svg" p-id="4325" xmlns:xlink="http://www.w3.org/1999/xlink" width="200" height="200"><path d="M950.741 534.513l-128.07 128.07c-6.004 6.003-14.008 9.505-22.513 9.505-17.51 0-32.018-14.508-32.018-32.018l0-64.035L255.859 576.035l0 64.035c0 17.51-14.508 32.018-32.018 32.018-8.505 0-16.509-3.502-22.512-9.505l-128.07-128.07c-6.003-6.004-9.505-14.008-9.505-22.513s3.502-16.509 9.505-22.512l128.07-128.07c6.003-6.003 14.007-9.505 22.512-9.505 17.51 0 32.018 14.508 32.018 32.018l0 64.035 512.281 0L768.14 383.93c0-17.51 14.508-32.018 32.018-32.018 8.505 0 16.509 3.502 22.513 9.505l128.07 128.07c6.003 6.003 9.505 14.007 9.505 22.512S956.744 528.509 950.741 534.513z" p-id="4326"></path></svg>